<?xml version="1.0" standalone="no"?><!DOCTYPE svg PUBLIC "-//W3C//DTD SVG 1.1//EN" "http://www.w3.org/Graphics/SVG/1.1/DTD/svg11.dtd"><svg t="1574907276289" class="icon" viewBox="0 0 1024 1024" version="1.1" xmlns="http://www.w3.org/2000/svg" p-id="33526" xmlns:xlink="http://www.w3.org/1999/xlink" width="128" height="128"><defs><style type="text/css"></style></defs><path d="M511.7 63.9c-247.1 0-447.5 200.3-447.5 447.5s200.3 447.5 447.5 447.5 447.5-200.3 447.5-447.5S758.8 63.9 511.7 63.9z m283.9 731.4c-36.9 36.9-79.8 65.8-127.6 86.1-49.5 20.9-102.1 31.5-156.3 31.5s-106.8-10.6-156.3-31.5c-47.8-20.2-90.8-49.2-127.6-86.1s-65.8-79.8-86.1-127.6c-20.9-49.5-31.5-102.1-31.5-156.3 0-54.2 10.6-106.8 31.5-156.3 20.2-47.8 49.2-90.8 86.1-127.6s79.8-65.8 127.6-86.1c49.5-20.9 102.1-31.5 156.3-31.5s106.8 10.6 156.3 31.5c47.8 20.2 90.8 49.2 127.6 86.1s65.8 79.8 86.1 127.6c20.9 49.5 31.5 102.1 31.5 156.3 0 54.2-10.6 106.8-31.5 156.3-20.2 47.8-49.2 90.7-86.1 127.6z" p-id="33527" fill="#2D7FEB"></path><path d="M512 640c-13.3 0-24-10.7-24-24V280c0-13.3 10.7-24 24-24s24 10.7 24 24v336c0 13.2-10.7 24-24 24zM512.2 767.8h-1.6c-0.6 0-1-0.1-1.6-0.1s-1.1-0.1-1.6-0.2-1-0.2-1.6-0.3l-1.5-0.3c-0.5-0.1-1-0.3-1.5-0.4-0.5-0.1-1-0.3-1.5-0.5l-1.5-0.6c-0.5-0.2-1-0.4-1.4-0.6-0.5-0.2-0.9-0.5-1.4-0.7s-0.9-0.5-1.4-0.8c-0.5-0.3-0.9-0.5-1.3-0.8-0.4-0.3-0.9-0.6-1.3-0.9-0.4-0.3-0.8-0.6-1.3-1-0.4-0.3-0.8-0.7-1.2-1-0.4-0.4-0.8-0.7-1.1-1.1-0.4-0.4-0.7-0.8-1.1-1.2-0.4-0.4-0.7-0.8-1-1.2-0.3-0.4-0.6-0.8-1-1.2s-0.6-0.8-0.9-1.3c-0.3-0.4-0.6-0.9-0.8-1.3-0.3-0.4-0.5-0.9-0.8-1.4-0.2-0.5-0.5-0.9-0.7-1.4-0.2-0.5-0.4-1-0.6-1.4l-0.6-1.5c-0.2-0.5-0.3-1-0.5-1.5-0.1-0.5-0.3-1-0.4-1.5-0.1-0.5-0.3-1-0.3-1.5l-0.3-1.5c-0.1-0.5-0.1-1-0.2-1.6 0-0.5-0.1-1-0.1-1.6v-1.6-1.6c0-0.5 0.1-1 0.1-1.6 0.1-0.5 0.1-1 0.2-1.6l0.3-1.5 0.3-1.5c0.1-0.5 0.3-1 0.4-1.5 0.2-0.5 0.3-1 0.5-1.5l0.6-1.5c0.2-0.5 0.4-1 0.6-1.4 0.2-0.5 0.5-0.9 0.7-1.4 0.3-0.5 0.5-0.9 0.8-1.4 0.3-0.4 0.6-0.9 0.8-1.3 0.3-0.4 0.6-0.9 0.9-1.3s0.6-0.8 1-1.2c0.3-0.4 0.7-0.8 1-1.2 0.4-0.4 0.7-0.8 1.1-1.1 0.4-0.4 0.8-0.7 1.1-1.1 0.4-0.4 0.8-0.7 1.2-1 0.4-0.3 0.8-0.7 1.3-1 0.4-0.3 0.9-0.6 1.3-0.9 0.4-0.3 0.9-0.6 1.3-0.8 0.4-0.3 0.9-0.5 1.4-0.8 0.5-0.3 0.9-0.5 1.4-0.7 0.5-0.2 1-0.4 1.4-0.6l1.5-0.6c0.5-0.2 1-0.3 1.5-0.5 0.5-0.1 1-0.3 1.5-0.4l1.5-0.3c0.5-0.1 1-0.2 1.6-0.3 0.5-0.1 1-0.1 1.6-0.2 0.5-0.1 1-0.1 1.6-0.1h3.1c0.5 0 1 0.1 1.6 0.1 0.5 0 1 0.1 1.6 0.2l1.5 0.3 1.5 0.3c0.5 0.1 1 0.3 1.5 0.4 0.5 0.2 1 0.3 1.5 0.5l1.5 0.6c0.5 0.2 1 0.4 1.4 0.6 0.5 0.2 1 0.5 1.4 0.7 0.5 0.2 0.9 0.5 1.4 0.8 0.4 0.3 0.9 0.5 1.3 0.8 0.4 0.3 0.9 0.6 1.3 0.9 0.4 0.3 0.8 0.6 1.2 1 0.4 0.3 0.8 0.7 1.2 1 0.4 0.3 0.8 0.7 1.1 1.1s0.7 0.8 1.1 1.1c0.4 0.4 0.7 0.8 1 1.2 0.3 0.4 0.7 0.8 1 1.2 0.3 0.4 0.6 0.8 0.9 1.3 0.3 0.4 0.6 0.9 0.8 1.3 0.3 0.5 0.5 0.9 0.8 1.4 0.2 0.5 0.5 0.9 0.7 1.4 0.2 0.5 0.4 1 0.6 1.4l0.6 1.5c0.2 0.5 0.3 1 0.5 1.5 0.1 0.5 0.3 1 0.4 1.5l0.3 1.5 0.3 1.5c0.1 0.5 0.1 1 0.2 1.6 0 0.5 0.1 1 0.1 1.6v3.2c0 0.5-0.1 1-0.1 1.6-0.1 0.5-0.1 1-0.2 1.6l-0.3 1.5-0.3 1.5c-0.1 0.5-0.3 1-0.4 1.5-0.2 0.5-0.3 1-0.5 1.5l-0.6 1.5c-0.2 0.5-0.4 1-0.6 1.4s-0.5 0.9-0.7 1.4c-0.3 0.5-0.5 0.9-0.8 1.4-0.3 0.4-0.5 0.9-0.8 1.3-0.3 0.4-0.6 0.9-0.9 1.3-0.3 0.4-0.6 0.8-1 1.2-0.3 0.4-0.7 0.8-1 1.2-0.3 0.4-0.7 0.8-1.1 1.2s-0.8 0.7-1.1 1.1c-0.4 0.3-0.8 0.7-1.2 1-0.4 0.3-0.8 0.6-1.2 1-0.4 0.3-0.8 0.6-1.3 0.9-0.4 0.3-0.9 0.6-1.3 0.8-0.5 0.3-0.9 0.5-1.4 0.8-0.5 0.2-0.9 0.5-1.4 0.7-0.5 0.2-1 0.4-1.4 0.6l-1.5 0.6c-0.5 0.2-1 0.3-1.5 0.5s-1 0.3-1.5 0.4l-1.5 0.3-1.5 0.3c-0.5 0.1-1 0.1-1.6 0.2-0.5 0-1 0.1-1.6 0.1-0.5-0.1-1 0-1.5 0z" p-id="33528" fill="#2D7FEB"></path></svg>